<?xml version="1.0" encoding="UTF-8" standalone="no"?>
<svg
   xmlns:dc="http://purl.org/dc/elements/1.1/"
   xmlns:cc="http://creativecommons.org/ns#"
   xmlns:rdf="http://www.w3.org/1999/02/22-rdf-syntax-ns#"
   xmlns:svg="http://www.w3.org/2000/svg"
   xmlns="http://www.w3.org/2000/svg"
   xmlns:sodipodi="http://sodipodi.sourceforge.net/DTD/sodipodi-0.dtd"
   xmlns:inkscape="http://www.inkscape.org/namespaces/inkscape"
   version="1.1"
   x="0px"
   y="0px"
   viewBox="0 0 90 90"
   enable-background="new 0 0 87.5 100"
   xml:space="preserve"
   id="svg2"
   inkscape:version="0.48.5 r10040"
   width="100%"
   height="100%"
   sodipodi:docname="sync-10.svg"
   style="fill:#7f7f7f"><metadata
     id="metadata30"><rdf:RDF><cc:Work
         rdf:about=""><dc:format>image/svg+xml</dc:format><dc:type
           rdf:resource="http://purl.org/dc/dcmitype/StillImage" /><dc:title></dc:title></cc:Work></rdf:RDF></metadata><defs
     id="defs28" /><sodipodi:namedview
     pagecolor="#ffffff"
     bordercolor="#666666"
     borderopacity="1"
     objecttolerance="10"
     gridtolerance="10"
     guidetolerance="10"
     inkscape:pageopacity="0"
     inkscape:pageshadow="2"
     inkscape:window-width="1916"
     inkscape:window-height="1036"
     id="namedview26"
     showgrid="false"
     fit-margin-right="0"
     fit-margin-left="0"
     fit-margin-top="0"
     fit-margin-bottom="0"
     inkscape:zoom="3.337544"
     inkscape:cx="-5.6026747"
     inkscape:cy="6.6451099"
     inkscape:window-x="2"
     inkscape:window-y="42"
     inkscape:window-maximized="0"
     inkscape:current-layer="svg2" /><g
     display="none"
     id="g4"
     style="display:none"
     transform="translate(-8.421123,-9.905695)"><path
       display="inline"
       d="m 51.473,42.255 -2.205,2.212 c 1.478,1.477 2.295,3.442 2.295,5.533 0,4.309 -3.504,7.812 -7.812,7.812 V 56.25 l -3.125,3.125 3.124,3.125 v -1.562 c 6.029,0 10.938,-4.906 10.938,-10.938 0,-2.927 -1.141,-5.676 -3.215,-7.745 z"
       id="path6"
       inkscape:connector-curvature="0"
       style="fill:#7f7f7f;display:inline" /><path
       display="inline"
       d="M 46.875,40.625 43.75,37.5 v 1.562 c -6.03,0 -10.938,4.907 -10.938,10.938 0,2.927 1.141,5.676 3.217,7.745 l 2.203,-2.212 C 36.755,54.054 35.938,52.091 35.938,50 c 0,-4.309 3.504,-7.812 7.812,-7.812 v 1.562 l 3.125,-3.125 z"
       id="path8"
       inkscape:connector-curvature="0"
       style="fill:#7f7f7f;display:inline" /></g><g
     id="g10"
     transform="matrix(0.35836798,0.93358042,-0.93358042,0.35836798,75.51133,-12.821282)"
     style="stroke-width:1.5;stroke-miterlimit:4;stroke-dasharray:none"><g
       id="g12"
       style="stroke-width:1.5;stroke-miterlimit:4;stroke-dasharray:none"><g
         id="g14"
         style="stroke-width:1.5;stroke-miterlimit:4;stroke-dasharray:none"><path
           d="m 9.157,62.433 9.067,-3.846 c 0,0 -8.362,-16.937 9.114,-30.036 0,0 10.923,-7.473 22.901,-2.375 l 3.723,-9.131 c 0,0 -18.187,-7.625 -33.46,4.247 0,-0.001 -21.289,14.069 -11.345,41.141 z"
           id="path16"
           inkscape:connector-curvature="0"
           style="fill:#7f7f7f;stroke-width:1.5;stroke-miterlimit:4;stroke-dasharray:none" /><polygon
           points="43.409,35.101 63.969,26.446 55.317,5.887 "
           id="polygon18"
           style="fill:#7f7f7f;stroke-width:1.5;stroke-miterlimit:4;stroke-dasharray:none" /></g><g
         id="g20"
         style="stroke-width:1.5;stroke-miterlimit:4;stroke-dasharray:none"><path
           d="m 76.943,36.001 -9.068,3.836 c 0,0 8.355,16.94 -9.128,30.032 0,0 -10.93,7.471 -22.904,2.372 l -3.723,9.121 c 0,0 18.18,7.639 33.461,-4.227 0,0 21.294,-14.062 11.362,-41.134 z"
           id="path22"
           inkscape:connector-curvature="0"
           style="fill:#7f7f7f;stroke-width:1.5;stroke-miterlimit:4;stroke-dasharray:none" /><polygon
           points="42.676,63.312 22.112,71.962 30.762,92.525 "
           id="polygon24"
           style="fill:#7f7f7f;stroke-width:1.5;stroke-miterlimit:4;stroke-dasharray:none" /></g></g></g></svg>
