<svg fill="#000000" xmlns="http://www.w3.org/2000/svg" xmlns:xlink="http://www.w3.org/1999/xlink" viewBox="0 0 60 60" version="1.1" x="0px" y="0px"><title>Group 68</title><desc>Created with Sketch.</desc><g stroke="none" stroke-width="1" fill="none" fill-rule="evenodd"><g transform="translate(-720.000000, -1093.000000)" fill="#000000"><g transform="translate(720.000000, 1092.000000)"><path d="M42.8574,13.2812 C42.7844,13.2812 42.7104,13.2732 42.6354,13.2572 C42.0454,13.1222 40.2684,12.8112 39.1504,12.9832 C38.6044,13.0652 38.0944,12.6912 38.0114,12.1452 C37.9284,11.5992 38.3034,11.0902 38.8494,11.0072 C40.5754,10.7412 42.9774,11.2832 43.0794,11.3062 C43.6184,11.4282 43.9554,11.9652 43.8324,12.5032 C43.7264,12.9672 43.3144,13.2812 42.8574,13.2812"/><path d="M26,11.9951 C25.447,11.9951 25,11.5481 25,10.9951 C25,8.7521 23.243,6.9951 21,6.9951 C18.743,6.9951 17.105,8.6101 17.105,10.8371 C17.105,11.3901 16.658,11.8371 16.105,11.8371 C15.553,11.8371 15.105,11.3901 15.105,10.8371 C15.105,7.5071 17.64,4.9951 21,4.9951 C24.364,4.9951 27,7.6311 27,10.9951 C27,11.5481 26.553,11.9951 26,11.9951"/><path d="M21,6.9951 C18.743,6.9951 17.105,8.6101 17.105,10.8371 C17.105,10.8861 17.109,10.9341 17.113,10.9831 L17.118,11.1831 C17.111,11.3041 17.105,11.3881 17.105,11.4691 L17.105,12.0991 L16.537,12.3701 C14.355,13.4161 13,15.6811 13,18.2801 C13,21.9821 15.766,24.9951 19.165,24.9951 L41.351,24.9951 C44.571,24.9951 47,22.4761 47,19.1381 C47,16.1271 45.086,13.5801 42.448,13.0831 L41.645,12.9321 L41.634,12.1131 C41.567,7.0861 37.506,2.9951 32.58,2.9951 C29.536,2.9951 26.477,4.6391 24.785,7.1821 L24.231,8.0151 L23.398,7.4621 C22.77,7.0441 21.729,6.9951 21,6.9951 M41.351,26.9951 L19.165,26.9951 C14.663,26.9951 11,23.0861 11,18.2801 C11,15.1311 12.558,12.3491 15.105,10.8671 L15.105,10.8371 C15.105,7.5071 17.64,4.9951 21,4.9951 C21.797,4.9951 22.756,5.0461 23.635,5.3631 C25.771,2.6491 29.121,0.9951 32.58,0.9951 C38.338,0.9951 43.128,5.5561 43.597,11.3111 C46.771,12.2951 49,15.4601 49,19.1381 C49,23.6171 45.712,26.9951 41.351,26.9951"/><path d="M2.667,38.9951 C2.299,38.9951 2,39.2941 2,39.6621 L2,58.3281 C2,58.6961 2.299,58.9951 2.667,58.9951 L15.333,58.9951 C15.701,58.9951 16,58.6961 16,58.3281 L16,39.6621 C16,39.2941 15.701,38.9951 15.333,38.9951 L2.667,38.9951 Z M15.333,60.9951 L2.667,60.9951 C1.196,60.9951 0,59.7991 0,58.3281 L0,39.6621 C0,38.1911 1.196,36.9951 2.667,36.9951 L15.333,36.9951 C16.804,36.9951 18,38.1911 18,39.6621 L18,58.3281 C18,59.7991 16.804,60.9951 15.333,60.9951 L15.333,60.9951 Z"/><path d="M44.667,38.9951 C44.299,38.9951 44,39.2941 44,39.6621 L44,58.3281 C44,58.6961 44.299,58.9951 44.667,58.9951 L57.333,58.9951 C57.701,58.9951 58,58.6961 58,58.3281 L58,39.6621 C58,39.2941 57.701,38.9951 57.333,38.9951 L44.667,38.9951 Z M57.333,60.9951 L44.667,60.9951 C43.196,60.9951 42,59.7991 42,58.3281 L42,39.6621 C42,38.1911 43.196,36.9951 44.667,36.9951 L57.333,36.9951 C58.804,36.9951 60,38.1911 60,39.6621 L60,58.3281 C60,59.7991 58.804,60.9951 57.333,60.9951 L57.333,60.9951 Z"/><path d="M23.667,38.9951 C23.299,38.9951 23,39.2941 23,39.6621 L23,58.3281 C23,58.6961 23.299,58.9951 23.667,58.9951 L36.333,58.9951 C36.701,58.9951 37,58.6961 37,58.3281 L37,39.6621 C37,39.2941 36.701,38.9951 36.333,38.9951 L23.667,38.9951 Z M36.333,60.9951 L23.667,60.9951 C22.196,60.9951 21,59.7991 21,58.3281 L21,39.6621 C21,38.1911 22.196,36.9951 23.667,36.9951 L36.333,36.9951 C37.804,36.9951 39,38.1911 39,39.6621 L39,58.3281 C39,59.7991 37.804,60.9951 36.333,60.9951 L36.333,60.9951 Z"/><path d="M6,48.9951 C6,49.5471 5.552,49.9951 5,49.9951 C4.448,49.9951 4,49.5471 4,48.9951 C4,48.4431 4.448,47.9951 5,47.9951 C5.552,47.9951 6,48.4431 6,48.9951"/><path d="M10,48.9951 C10,49.5471 9.552,49.9951 9,49.9951 C8.448,49.9951 8,49.5471 8,48.9951 C8,48.4431 8.448,47.9951 9,47.9951 C9.552,47.9951 10,48.4431 10,48.9951"/><path d="M14,48.9951 C14,49.5471 13.552,49.9951 13,49.9951 C12.448,49.9951 12,49.5471 12,48.9951 C12,48.4431 12.448,47.9951 13,47.9951 C13.552,47.9951 14,48.4431 14,48.9951"/><path d="M27,45.9951 C27,46.5471 26.552,46.9951 26,46.9951 C25.448,46.9951 25,46.5471 25,45.9951 C25,45.4431 25.448,44.9951 26,44.9951 C26.552,44.9951 27,45.4431 27,45.9951"/><path d="M31,45.9951 C31,46.5471 30.552,46.9951 30,46.9951 C29.448,46.9951 29,46.5471 29,45.9951 C29,45.4431 29.448,44.9951 30,44.9951 C30.552,44.9951 31,45.4431 31,45.9951"/><path d="M29,42.9951 C29,43.5471 28.552,43.9951 28,43.9951 C27.448,43.9951 27,43.5471 27,42.9951 C27,42.4431 27.448,41.9951 28,41.9951 C28.552,41.9951 29,42.4431 29,42.9951"/><path d="M33,42.9951 C33,43.5471 32.552,43.9951 32,43.9951 C31.448,43.9951 31,43.5471 31,42.9951 C31,42.4431 31.448,41.9951 32,41.9951 C32.552,41.9951 33,42.4431 33,42.9951"/><path d="M35,45.9951 C35,46.5471 34.552,46.9951 34,46.9951 C33.448,46.9951 33,46.5471 33,45.9951 C33,45.4431 33.448,44.9951 34,44.9951 C34.552,44.9951 35,45.4431 35,45.9951"/><path d="M13,43.9951 L5,43.9951 C4.447,43.9951 4,43.5481 4,42.9951 C4,42.4421 4.447,41.9951 5,41.9951 L13,41.9951 C13.553,41.9951 14,42.4421 14,42.9951 C14,43.5481 13.553,43.9951 13,43.9951"/><path d="M13,55.9951 L5,55.9951 C4.447,55.9951 4,55.5481 4,54.9951 C4,54.4421 4.447,53.9951 5,53.9951 L13,53.9951 C13.553,53.9951 14,54.4421 14,54.9951 C14,55.5481 13.553,55.9951 13,55.9951"/><path d="M48,48.9951 C48,49.5471 47.552,49.9951 47,49.9951 C46.448,49.9951 46,49.5471 46,48.9951 C46,48.4431 46.448,47.9951 47,47.9951 C47.552,47.9951 48,48.4431 48,48.9951"/><path d="M52,48.9951 C52,49.5471 51.552,49.9951 51,49.9951 C50.448,49.9951 50,49.5471 50,48.9951 C50,48.4431 50.448,47.9951 51,47.9951 C51.552,47.9951 52,48.4431 52,48.9951"/><path d="M56,48.9951 C56,49.5471 55.552,49.9951 55,49.9951 C54.448,49.9951 54,49.5471 54,48.9951 C54,48.4431 54.448,47.9951 55,47.9951 C55.552,47.9951 56,48.4431 56,48.9951"/><path d="M55,43.9951 L47,43.9951 C46.447,43.9951 46,43.5481 46,42.9951 C46,42.4421 46.447,41.9951 47,41.9951 L55,41.9951 C55.553,41.9951 56,42.4421 56,42.9951 C56,43.5481 55.553,43.9951 55,43.9951"/><path d="M55,55.9951 L47,55.9951 C46.447,55.9951 46,55.5481 46,54.9951 C46,54.4421 46.447,53.9951 47,53.9951 L55,53.9951 C55.553,53.9951 56,54.4421 56,54.9951 C56,55.5481 55.553,55.9951 55,55.9951"/><path d="M34,51.9951 L26,51.9951 C25.447,51.9951 25,51.5481 25,50.9951 C25,50.4421 25.447,49.9951 26,49.9951 L34,49.9951 C34.553,49.9951 35,50.4421 35,50.9951 C35,51.5481 34.553,51.9951 34,51.9951"/><path d="M34,55.9951 L31,55.9951 C30.447,55.9951 30,55.5481 30,54.9951 C30,54.4421 30.447,53.9951 31,53.9951 L34,53.9951 C34.553,53.9951 35,54.4421 35,54.9951 C35,55.5481 34.553,55.9951 34,55.9951"/><path d="M27,55.9951 L26,55.9951 C25.447,55.9951 25,55.5481 25,54.9951 C25,54.4421 25.447,53.9951 26,53.9951 L27,53.9951 C27.553,53.9951 28,54.4421 28,54.9951 C28,55.5481 27.553,55.9951 27,55.9951"/><path d="M9,38.9951 C8.447,38.9951 8,38.5481 8,37.9951 L8,31.9951 C8,31.4421 8.447,30.9951 9,30.9951 C9.553,30.9951 10,31.4421 10,31.9951 L10,37.9951 C10,38.5481 9.553,38.9951 9,38.9951"/><path d="M30,38.9951 C29.447,38.9951 29,38.5481 29,37.9951 L29,25.9951 C29,25.4421 29.447,24.9951 30,24.9951 C30.553,24.9951 31,25.4421 31,25.9951 L31,37.9951 C31,38.5481 30.553,38.9951 30,38.9951"/><path d="M51,38.9951 C50.447,38.9951 50,38.5481 50,37.9951 L50,31.9951 C50,31.4421 50.447,30.9951 51,30.9951 C51.553,30.9951 52,31.4421 52,31.9951 L52,37.9951 C52,38.5481 51.553,38.9951 51,38.9951"/><path d="M51,32.9951 L9,32.9951 C8.447,32.9951 8,32.5481 8,31.9951 C8,31.4421 8.447,30.9951 9,30.9951 L51,30.9951 C51.553,30.9951 52,31.4421 52,31.9951 C52,32.5481 51.553,32.9951 51,32.9951"/></g></g></g></svg>