<?xml version="1.0" encoding="UTF-8" standalone="no"?>
<!-- Generator: Adobe Illustrator 16.0.0, SVG Export Plug-In . SVG Version: 6.00 Build 0)  -->

<svg
   xmlns:dc="http://purl.org/dc/elements/1.1/"
   xmlns:cc="http://creativecommons.org/ns#"
   xmlns:rdf="http://www.w3.org/1999/02/22-rdf-syntax-ns#"
   xmlns:svg="http://www.w3.org/2000/svg"
   xmlns="http://www.w3.org/2000/svg"
   xmlns:sodipodi="http://sodipodi.sourceforge.net/DTD/sodipodi-0.dtd"
   xmlns:inkscape="http://www.inkscape.org/namespaces/inkscape"
   version="1.1"
   id="Capa_1"
   x="0px"
   y="0px"
   width="561px"
   height="561px"
   viewBox="0 0 561 561"
   style="enable-background:new 0 0 561 561;"
   xml:space="preserve"
   sodipodi:docname="eye.svg"
   inkscape:export-xdpi="96"
   inkscape:export-ydpi="96"
   inkscape:version="0.92.1 r15371"><metadata
     id="metadata42"><rdf:RDF><cc:Work
         rdf:about=""><dc:format>image/svg+xml</dc:format><dc:type
           rdf:resource="http://purl.org/dc/dcmitype/StillImage" /></cc:Work></rdf:RDF></metadata><defs
     id="defs40" /><sodipodi:namedview
     pagecolor="#ffffff"
     bordercolor="#666666"
     borderopacity="1"
     objecttolerance="10"
     gridtolerance="10"
     guidetolerance="10"
     inkscape:pageopacity="0"
     inkscape:pageshadow="2"
     inkscape:window-width="1916"
     inkscape:window-height="1036"
     id="namedview38"
     showgrid="false"
     inkscape:zoom="0.42067736"
     inkscape:cx="-140.25"
     inkscape:cy="280.5"
     inkscape:window-x="2"
     inkscape:window-y="42"
     inkscape:window-maximized="0"
     inkscape:current-layer="Capa_1" /><g
     id="g5"
     style="fill:#808080;fill-opacity:1"><g
       id="visibility"
       style="fill:#808080;fill-opacity:1"><path
         d="M280.5,89.25C153,89.25,43.35,168.3,0,280.5c43.35,112.2,153,191.25,280.5,191.25S517.65,392.7,561,280.5    C517.65,168.3,408,89.25,280.5,89.25z M280.5,408C209.1,408,153,351.9,153,280.5c0-71.4,56.1-127.5,127.5-127.5    c71.4,0,127.5,56.1,127.5,127.5C408,351.9,351.9,408,280.5,408z M280.5,204c-43.35,0-76.5,33.15-76.5,76.5    c0,43.35,33.15,76.5,76.5,76.5c43.35,0,76.5-33.15,76.5-76.5C357,237.15,323.85,204,280.5,204z"
         id="path2"
         style="fill:#808080;fill-opacity:1" /></g></g><g
     id="g7" /><g
     id="g9" /><g
     id="g11" /><g
     id="g13" /><g
     id="g15" /><g
     id="g17" /><g
     id="g19" /><g
     id="g21" /><g
     id="g23" /><g
     id="g25" /><g
     id="g27" /><g
     id="g29" /><g
     id="g31" /><g
     id="g33" /><g
     id="g35" /></svg>
