<?xml version="1.0" encoding="UTF-8" standalone="no"?>
<svg
   xmlns:dc="http://purl.org/dc/elements/1.1/"
   xmlns:cc="http://creativecommons.org/ns#"
   xmlns:rdf="http://www.w3.org/1999/02/22-rdf-syntax-ns#"
   xmlns:svg="http://www.w3.org/2000/svg"
   xmlns="http://www.w3.org/2000/svg"
   xmlns:sodipodi="http://sodipodi.sourceforge.net/DTD/sodipodi-0.dtd"
   xmlns:inkscape="http://www.inkscape.org/namespaces/inkscape"
   width="20px"
   height="20px"
   viewBox="0 0 20 20"
   version="1.1"
   id="svg11"
   sodipodi:docname="laptop-grey.svg"
   inkscape:version="0.92.1 r15371">
  <metadata
     id="metadata15">
    <rdf:RDF>
      <cc:Work
         rdf:about="">
        <dc:format>image/svg+xml</dc:format>
        <dc:type
           rdf:resource="http://purl.org/dc/dcmitype/StillImage" />
        <dc:title>computer-laptop</dc:title>
      </cc:Work>
    </rdf:RDF>
  </metadata>
  <sodipodi:namedview
     pagecolor="#ffffff"
     bordercolor="#666666"
     borderopacity="1"
     objecttolerance="10"
     gridtolerance="10"
     guidetolerance="10"
     inkscape:pageopacity="0"
     inkscape:pageshadow="2"
     inkscape:window-width="1916"
     inkscape:window-height="1036"
     id="namedview13"
     showgrid="false"
     inkscape:zoom="11.8"
     inkscape:cx="-4.9152542"
     inkscape:cy="10"
     inkscape:window-x="2"
     inkscape:window-y="42"
     inkscape:window-maximized="0"
     inkscape:current-layer="svg11" />
  <!-- Generator: Sketch 3.7.2 (28276) - http://www.bohemiancoding.com/sketch -->
  <title
     id="title2">computer-laptop</title>
  <desc
     id="desc4">Created with Sketch.</desc>
  <defs
     id="defs6" />
  <g
     id="Page-1"
     stroke="none"
     stroke-width="1"
     fill="none"
     fill-rule="evenodd"
     style="fill:#7f7f7f;fill-opacity:1">
    <g
       id="computer-laptop"
       fill="#000000"
       style="fill:#7f7f7f;fill-opacity:1">
      <path
         d="M18,16 L18,3.99406028 C18,2.89451376 17.1072288,2 16.0059397,2 L3.99406028,2 C2.89451376,2 2,2.8927712 2,3.99406028 L2,16 L0,16 L0,17 C0,17.5561352 0.444045377,18 0.99180311,18 L19.0081969,18 C19.5446944,18 20,17.5522847 20,17 L20,16 L18,16 Z M4,4 L16,4 L16,13 L4,13 L4,4 Z M8,15 L12,15 L12,16 L8,16 L8,15 Z"
         id="Combined-Shape"
         style="fill:#7f7f7f;fill-opacity:1" />
    </g>
  </g>
</svg>
