<?xml version="1.0" encoding="UTF-8" standalone="no"?>
<svg width="20px" height="20px" viewBox="0 0 20 20" version="1.1" xmlns="http://www.w3.org/2000/svg" xmlns:xlink="http://www.w3.org/1999/xlink">
    <!-- Generator: Sketch 3.7.2 (28276) - http://www.bohemiancoding.com/sketch -->
    <title>computer-laptop</title>
    <desc>Created with Sketch.</desc>
    <defs></defs>
    <g id="Page-1" stroke="none" stroke-width="1" fill="none" fill-rule="evenodd">
        <g id="computer-laptop" fill="#000000">
            <path d="M18,16 L18,3.99406028 C18,2.89451376 17.1072288,2 16.0059397,2 L3.99406028,2 C2.89451376,2 2,2.8927712 2,3.99406028 L2,16 L0,16 L0,17 C0,17.5561352 0.444045377,18 0.99180311,18 L19.0081969,18 C19.5446944,18 20,17.5522847 20,17 L20,16 L18,16 Z M4,4 L16,4 L16,13 L4,13 L4,4 Z M8,15 L12,15 L12,16 L8,16 L8,15 Z" id="Combined-Shape"></path>
        </g>
    </g>
</svg>