<?xml version="1.0" encoding="UTF-8" standalone="no"?>
<svg
   xmlns:dc="http://purl.org/dc/elements/1.1/"
   xmlns:cc="http://creativecommons.org/ns#"
   xmlns:rdf="http://www.w3.org/1999/02/22-rdf-syntax-ns#"
   xmlns:svg="http://www.w3.org/2000/svg"
   xmlns="http://www.w3.org/2000/svg"
   xmlns:sodipodi="http://sodipodi.sourceforge.net/DTD/sodipodi-0.dtd"
   xmlns:inkscape="http://www.inkscape.org/namespaces/inkscape"
   viewBox="0 0 20 20"
   version="1.1"
   id="svg4"
   sodipodi:docname="question.svg"
   inkscape:version="0.92.1 r15371"
   inkscape:export-xdpi="1228.8"
   inkscape:export-ydpi="1228.8"
   inkscape:export-filename="/home/user/code/gridsync/gridsync/resources/question.png">
  <metadata
     id="metadata10">
    <rdf:RDF>
      <cc:Work
         rdf:about="">
        <dc:format>image/svg+xml</dc:format>
        <dc:type
           rdf:resource="http://purl.org/dc/dcmitype/StillImage" />
      </cc:Work>
    </rdf:RDF>
  </metadata>
  <defs
     id="defs8" />
  <sodipodi:namedview
     pagecolor="#ffffff"
     bordercolor="#666666"
     borderopacity="1"
     objecttolerance="10"
     gridtolerance="10"
     guidetolerance="10"
     inkscape:pageopacity="0"
     inkscape:pageshadow="2"
     inkscape:window-width="1916"
     inkscape:window-height="1036"
     id="namedview6"
     showgrid="false"
     inkscape:zoom="33.37544"
     inkscape:cx="3.2935449"
     inkscape:cy="10"
     inkscape:window-x="2"
     inkscape:window-y="42"
     inkscape:window-maximized="0"
     inkscape:current-layer="svg4" />
  <path
     d="m 10.059924,20.029962 a 10,10 0 1 1 0,-19.99999985 10,10 0 0 1 0,19.99999985 z m 2,-12.9999998 c 0,0.28 -0.21,0.8 -0.42,1 l -1.58,1.58 C 9.4899243,10.189962 9.0599243,11.209962 9.0599243,12.029962 v 1 h 1.9999997 v -1 c 0,-0.29 0.21,-0.8 0.42,-1 l 1.58,-1.5799998 c 0.57,-0.58 1,-1.6 1,-2.42 a 4,4 0 1 0 -7.9999997,0 h 2 a 2,2 0 1 1 3.9999997,0 z M 9.0599243,15.029962 v 2 h 1.9999997 v -2 z"
     id="path2"
     style="fill:#6eabdd;fill-opacity:1"
     inkscape:export-filename="/home/user/code/gridsync/gridsync/resources/question.png"
     inkscape:export-xdpi="1228.8"
     inkscape:export-ydpi="1228.8"
     inkscape:connector-curvature="0" />
</svg>
