<?xml version="1.0" encoding="UTF-8" standalone="no"?>
<svg
   xmlns:dc="http://purl.org/dc/elements/1.1/"
   xmlns:cc="http://creativecommons.org/ns#"
   xmlns:rdf="http://www.w3.org/1999/02/22-rdf-syntax-ns#"
   xmlns:svg="http://www.w3.org/2000/svg"
   xmlns="http://www.w3.org/2000/svg"
   xmlns:sodipodi="http://sodipodi.sourceforge.net/DTD/sodipodi-0.dtd"
   xmlns:inkscape="http://www.inkscape.org/namespaces/inkscape"
   viewBox="0 0 20 20"
   version="1.1"
   id="svg4"
   sodipodi:docname="question.svg"
   inkscape:version="0.92.1 r15371"
   inkscape:export-xdpi="1228.8"
   inkscape:export-ydpi="1228.8">
  <metadata
     id="metadata10">
    <rdf:RDF>
      <cc:Work
         rdf:about="">
        <dc:format>image/svg+xml</dc:format>
        <dc:type
           rdf:resource="http://purl.org/dc/dcmitype/StillImage" />
      </cc:Work>
    </rdf:RDF>
  </metadata>
  <defs
     id="defs8" />
  <sodipodi:namedview
     pagecolor="#ffffff"
     bordercolor="#666666"
     borderopacity="1"
     objecttolerance="10"
     gridtolerance="10"
     guidetolerance="10"
     inkscape:pageopacity="0"
     inkscape:pageshadow="2"
     inkscape:window-width="1916"
     inkscape:window-height="1036"
     id="namedview6"
     showgrid="false"
     inkscape:zoom="11.8"
     inkscape:cx="-20.508475"
     inkscape:cy="10"
     inkscape:window-x="2"
     inkscape:window-y="42"
     inkscape:window-maximized="0"
     inkscape:current-layer="svg4" />
  <path
     d="M10 20a10 10 0 1 1 0-20 10 10 0 0 1 0 20zm2-13c0 .28-.21.8-.42 1L10 9.58c-.57.58-1 1.6-1 2.42v1h2v-1c0-.29.21-.8.42-1L13 9.42c.57-.58 1-1.6 1-2.42a4 4 0 1 0-8 0h2a2 2 0 1 1 4 0zm-3 8v2h2v-2H9z"
     id="path2"
     style="fill:#0080ff;fill-opacity:1" />
</svg>
