<?xml version="1.0" encoding="UTF-8" standalone="no"?>
<svg width="20px" height="20px" viewBox="0 0 20 20" version="1.1" xmlns="http://www.w3.org/2000/svg" xmlns:xlink="http://www.w3.org/1999/xlink">
    <!-- Generator: Sketch 3.7.2 (28276) - http://www.bohemiancoding.com/sketch -->
    <title>share-alt</title>
    <desc>Created with Sketch.</desc>
    <defs></defs>
    <g id="Page-1" stroke="none" stroke-width="1" fill="none" fill-rule="evenodd">
        <g id="share-alt" fill="#000000">
            <path d="M5.08261143,12.1593397 C4.54304902,12.6798471 3.80891237,13 3,13 C1.34314575,13 0,11.6568542 0,10 C0,8.34314575 1.34314575,7 3,7 C3.80891237,7 4.54304902,7.32015293 5.08261143,7.84066029 L14.0226687,3.37063167 C14.0077053,3.24918566 14,3.12549267 14,3 C14,1.34314575 15.3431458,0 17,0 C18.6568542,0 20,1.34314575 20,3 C20,4.65685425 18.6568542,6 17,6 C16.1910876,6 15.456951,5.67984707 14.9173886,5.15933971 L5.97733131,9.62936833 C5.99229467,9.75081434 6,9.87450733 6,10 C6,10.1254927 5.99229467,10.2491857 5.97733131,10.3706317 L14.9173886,14.8406603 C15.456951,14.3201529 16.1910876,14 17,14 C18.6568542,14 20,15.3431458 20,17 C20,18.6568542 18.6568542,20 17,20 C15.3431458,20 14,18.6568542 14,17 C14,16.8745073 14.0077053,16.7508143 14.0226687,16.6293683 L5.08261143,12.1593397 L5.08261143,12.1593397 Z" id="Combined-Shape"></path>
        </g>
    </g>
</svg>