<svg fill="#7f7f7f" xmlns="http://www.w3.org/2000/svg" xmlns:xlink="http://www.w3.org/1999/xlink" version="1.1" x="0px" y="0px" viewBox="0 0 87.5 100" enable-background="new 0 0 87.5 100" xml:space="preserve"><g display="none"><path display="inline" fill="#7f7f7f" d="M51.473,42.255l-2.205,2.212c1.478,1.477,2.295,3.442,2.295,5.533   c0,4.309-3.504,7.812-7.812,7.812V56.25l-3.125,3.125L43.75,62.5v-1.562c6.029,0,10.938-4.906,10.938-10.938   C54.688,47.073,53.547,44.324,51.473,42.255z"/><path display="inline" fill="#7f7f7f" d="M46.875,40.625L43.75,37.5v1.562c-6.03,0-10.938,4.907-10.938,10.938   c0,2.927,1.141,5.676,3.217,7.745l2.203-2.212c-1.477-1.479-2.294-3.442-2.294-5.533c0-4.309,3.504-7.812,7.812-7.812v1.562   L46.875,40.625z"/></g><g><g><g><path fill="#7f7f7f" d="M9.157,62.433l9.067-3.846c0,0-8.362-16.937,9.114-30.036c0,0,10.923-7.473,22.901-2.375l3.723-9.131     c0,0-18.187-7.625-33.46,4.247C20.502,21.291-0.787,35.361,9.157,62.433z"/><polygon fill="#7f7f7f" points="55.317,5.887 43.409,35.101 63.969,26.446    "/></g><g><path fill="#7f7f7f" d="M76.943,36.001l-9.068,3.836c0,0,8.355,16.94-9.128,30.032c0,0-10.93,7.471-22.904,2.372l-3.723,9.121     c0,0,18.18,7.639,33.461-4.227C65.581,77.135,86.875,63.073,76.943,36.001z"/><polygon fill="#7f7f7f" points="30.762,92.525 42.676,63.312 22.112,71.962    "/></g></g></g></svg>